<svg width="33" height="33" viewBox="0 0 33 33" fill="none" xmlns="http://www.w3.org/2000/svg">
<circle cx="16.7031" cy="16.7402" r="16.2617" fill="#8E0000"/>
<circle cx="16.7013" cy="16.7403" r="14.713" fill="#FFFBF2"/>
<circle cx="16.7033" cy="16.7402" r="13.1642" fill="#8E0000"/>
<path d="M16.7017 12.702H23.8837V14.013H16.7017V12.702ZM16.7207 17.3H23.9027V18.611H16.7207V17.3ZM16.7017 21.917H23.9027V23.228H16.7017V21.917ZM15.9987 8.161H24.5867V24.349H23.1617V9.529H17.3667V24.406H15.9987V8.161ZM7.98072 11.125H15.1627V12.493H7.98072V11.125ZM11.0777 7.04H12.4457V24.501H11.0777V7.04ZM11.0017 11.961L11.9517 12.284C11.2677 15.362 9.80472 19.067 8.30372 20.986C8.15172 20.587 7.79072 20.017 7.54372 19.694C8.96872 17.984 10.4127 14.716 11.0017 11.961ZM12.3127 14.051C12.8637 14.583 14.8207 16.863 15.2767 17.395L14.3837 18.573C13.8517 17.642 12.2557 15.514 11.5907 14.735L12.3127 14.051Z" fill="#FFFBF2"/>
</svg>
