<svg width="40" height="41" viewBox="0 0 40 41" fill="none" xmlns="http://www.w3.org/2000/svg">
<path d="M31.5166 7.57031H38.1635V21.144H31.5166V7.57031Z" fill="#C2352E"/>
<rect x="5.34644" y="24" width="10.9427" height="2.46433" rx="1.23217" transform="rotate(33.1178 5.34644 24)" fill="#C2352E"/>
<path d="M11.4947 8.69925C11.328 8.69809 11.1629 8.73277 11.0103 8.801C10.8577 8.86923 10.721 8.96947 10.6092 9.09513L3.37451 17.4314C3.20704 17.6233 3.11401 17.8706 3.11274 18.127L3.08414 24.8429C3.08372 24.9413 3.0797 25.0082 3.07919 25.1065C3.07803 25.332 3.27068 25.558 3.49591 25.5466C4.38245 25.5018 4.7006 25.422 5.55084 24.5173C5.89999 24.1458 6.08126 23.6479 6.08126 23.138V20.9208C6.08139 20.6414 6.18246 20.3718 6.3653 20.163L10.0467 15.9949C10.1742 15.8479 10.3376 15.7375 10.5204 15.675C10.7032 15.6125 10.8991 15.5999 11.0882 15.6386L16.2622 16.6622C16.5016 16.7427 16.7194 16.8786 16.8982 17.0592C17.077 17.2398 17.212 17.4601 17.2925 17.7028L18.3229 22.6231C18.3584 22.7948 18.3543 22.9725 18.3108 23.1422C18.2673 23.312 18.1857 23.4692 18.0722 23.6015L15.2987 26.8535C14.6648 27.5728 14.2187 28.4419 14.001 29.3815C13.8228 30.1902 13.8785 30.4617 14.7918 31.0951C15.0472 31.2729 15.3576 31.3503 15.665 31.3128C15.9725 31.2754 16.256 31.1256 16.4627 30.8915L21.4696 24.9023C21.6077 24.7384 21.7895 24.6186 21.9931 24.5573C24.7315 23.4971 27.1383 21.7076 28.9605 19.3769C29.0654 19.2453 29.1977 19.139 29.348 19.0656C29.4982 18.9923 29.6626 18.9537 29.8293 18.9527H31.5169V8.69925H11.4947Z" fill="#F1AB89"/>
<rect x="1" y="37" width="38" height="3" rx="1.5" fill="#C2352E"/>
<rect width="12" height="2" rx="1" transform="matrix(1 0 0 -1 19 37)" fill="#C2352E"/>
</svg>
