<svg width="40" height="41" viewBox="0 0 40 41" fill="none" xmlns="http://www.w3.org/2000/svg">
<g clip-path="url(#clip0_14048_18818)">
<path d="M35.459 36.2844V35.0175C35.459 32.6887 33.5168 30.8008 31.121 30.8008H8.76369C6.36786 30.8008 4.42567 32.6887 4.42567 35.0175V36.2844C4.42567 38.6133 6.36786 40.5012 8.76369 40.5012H31.121C33.5168 40.5012 35.459 38.6133 35.459 36.2844Z" fill="#F1AB89"/>
<path d="M26.5059 31V29.0664C26.5059 27.5757 25.2626 26.3672 23.729 26.3672H16.1503C14.6167 26.3672 13.3735 27.5757 13.3735 29.0664V31C13.3735 32.4908 14.6167 33.6993 16.1503 33.6993H23.729C25.2626 33.6993 26.5059 32.4908 26.5059 31Z" fill="#C2352E"/>
<path d="M25.8443 3.63281H14.0451C7.95059 3.63281 3.01001 8.43527 3.01001 14.3594V19.7061C3.01001 25.6302 7.95059 30.4327 14.0451 30.4327H25.8443C31.9388 30.4327 36.8794 25.6302 36.8794 19.7061V14.3594C36.8794 8.43527 31.9388 3.63281 25.8443 3.63281Z" fill="#F1AB89"/>
<path d="M26.4971 5.17188H13.3922C7.65829 5.17188 3.01001 9.69021 3.01001 15.2639V18.8025C3.01001 24.3762 7.65829 28.8945 13.3922 28.8945H26.4971C32.2311 28.8945 36.8794 24.3762 36.8794 18.8025V15.2639C36.8794 9.69021 32.2311 5.17188 26.4971 5.17188Z" fill="#F6F1E8"/>
<path d="M29.5377 9.125H10.3436C7.38593 9.125 4.98828 11.4556 4.98828 14.3306V19.7322C4.98828 22.6071 7.38593 24.9378 10.3436 24.9378H29.5377C32.4954 24.9378 34.893 22.6071 34.893 19.7322V14.3306C34.893 11.4556 32.4954 9.125 29.5377 9.125Z" fill="#C2352E"/>
<path d="M3.43291 5.16797H2.67773V19.167H3.43291V5.16797Z" fill="#C2352E"/>
<path d="M3.05951 5.22171C3.68511 5.22171 4.19227 4.72873 4.19227 4.12062C4.19227 3.5125 3.68511 3.01953 3.05951 3.01953C2.43391 3.01953 1.92676 3.5125 1.92676 4.12062C1.92676 4.72873 2.43391 5.22171 3.05951 5.22171Z" fill="#C2352E"/>
<path d="M2.77755 13.0898H1.55908C0.694249 13.0898 -0.00683594 13.7713 -0.00683594 14.612V19.9337C-0.00683594 20.7744 0.694249 21.4559 1.55908 21.4559H2.77755C3.64238 21.4559 4.34346 20.7744 4.34346 19.9337V14.612C4.34346 13.7713 3.64238 13.0898 2.77755 13.0898Z" fill="#F1AB89"/>
<path d="M37.2207 5.16797H36.4656V19.167H37.2207V5.16797Z" fill="#C2352E"/>
<path d="M36.8474 5.22171C37.473 5.22171 37.9801 4.72873 37.9801 4.12062C37.9801 3.5125 37.473 3.01953 36.8474 3.01953C36.2218 3.01953 35.7146 3.5125 35.7146 4.12062C35.7146 4.72873 36.2218 5.22171 36.8474 5.22171Z" fill="#C2352E"/>
<path d="M38.4306 13.0898H37.2122C36.3473 13.0898 35.6462 13.7713 35.6462 14.612V19.9337C35.6462 20.7744 36.3473 21.4559 37.2122 21.4559H38.4306C39.2955 21.4559 39.9965 20.7744 39.9965 19.9337V14.612C39.9965 13.7713 39.2955 13.0898 38.4306 13.0898Z" fill="#F1AB89"/>
<path d="M25.6914 3.42617V1.80251C25.6914 1.08315 25.0915 0.5 24.3514 0.5L15.5286 0.5C14.7886 0.5 14.1887 1.08315 14.1887 1.80251V3.42617C14.1887 4.14553 14.7886 4.72868 15.5286 4.72868L24.3514 4.72868C25.0915 4.72868 25.6914 4.14553 25.6914 3.42617Z" fill="#F1AB89"/>
<path d="M12.8983 18.9157C14.3658 18.9157 15.5555 17.7593 15.5555 16.3329C15.5555 14.9064 14.3658 13.75 12.8983 13.75C11.4308 13.75 10.2412 14.9064 10.2412 16.3329C10.2412 17.7593 11.4308 18.9157 12.8983 18.9157Z" fill="#F6F1E8"/>
<path d="M27.1024 18.9157C28.5699 18.9157 29.7596 17.7593 29.7596 16.3329C29.7596 14.9064 28.5699 13.75 27.1024 13.75C25.6349 13.75 24.4453 14.9064 24.4453 16.3329C24.4453 17.7593 25.6349 18.9157 27.1024 18.9157Z" fill="#F6F1E8"/>
</g>
<defs>
<clipPath id="clip0_14048_18818">
<rect width="40" height="40" fill="white" transform="translate(0 0.5)"/>
</clipPath>
</defs>
</svg>
